<svg xmlns="http://www.w3.org/2000/svg" viewBox="0 0 294.55 105.64"><defs><style>.cls-1{fill:#a83720;}</style></defs><title>start-bg</title><g id="Capa_2" data-name="Capa 2"><g id="Capa_1-2" data-name="Capa 1"><path class="cls-1" d="M62.29,12.66l-50.73,27c-5.7,3-.66,11.61,5,8.64l74.82-39L86.38.62l-84,46.61c-4.88,2.71-1.6,11,3.86,9.15L115.65,19.66l-3.85-9.15L31.68,47.05l5,8.64,65.68-39.34L95.56,9.5A102.72,102.72,0,0,1,55.85,41.2l5,8.65,42.63-23-5-8.64-72.26,46c-4.51,2.88-1.61,11.45,3.86,9.15l130.2-54.81-4.87-8.36a505,505,0,0,1-77,50.05c-5.72,3-.68,11.54,5,8.65a632,632,0,0,0,93.95-58.33c5-3.78.76-11.8-5-8.65A757.76,757.76,0,0,1,23.8,63.16l3.86,9.15Q86,47.2,145.57,25.1l-4.87-8.37A375.45,375.45,0,0,1,64.19,63c-5.13,2.32-1.48,11.07,3.86,9.14A825.14,825.14,0,0,0,170.72,27l-6.07-7.86a147.77,147.77,0,0,1-50.34,34.59l3.86,9.15a681.89,681.89,0,0,1,76.62-42.81l-5.06-8.65L116.18,58.63c-5.43,3.48-.67,11.67,5,8.65l86.46-45.71-6.07-7.86a497.69,497.69,0,0,1-87.78,54.88l5.06,8.65,115-63-5-8.65A785.15,785.15,0,0,1,142.18,60c-5.68,3.07-.64,11.67,5,8.65l86.69-46.08-6.06-7.86a586.88,586.88,0,0,1-63.37,42.7c-5.63,3.29-.69,11.4,5,8.64l79.83-38.38-6.06-7.87Q197.19,60,147.79,96.1l6.06,7.86q28.62-29.2,59.94-55.49l-7.86-6.07L189.15,64.77c-3.56,4.73,3.86,9.7,7.86,6.06a305.13,305.13,0,0,1,42.74-32.48L232.9,31.5a83.64,83.64,0,0,1-23.6,28.69c-4.54,3.56,1.28,10.65,6.07,7.86l59.41-34.61-6.06-7.86L206.41,76.69c-4.35,3.57,1.52,11.3,6.06,7.86l78-59-6.07-7.86a196.06,196.06,0,0,1-30.81,29.73c-4.47,3.46,1.37,11,6.07,7.86l32.51-21.86-6.07-7.86A179.62,179.62,0,0,1,246.46,57l6.06,7.86a189.8,189.8,0,0,1,35-23.1c5.73-3,.67-11.59-5.06-8.65a201.68,201.68,0,0,0-37,24.67c-4.43,3.7,1.26,10.68,6.07,7.87a189,189,0,0,0,41.71-33c3.77-4-1.18-11.15-6.07-7.86l-32.5,21.86,6.06,7.86a196.06,196.06,0,0,0,30.81-29.73c3.33-4-1.18-11.55-6.06-7.86l-78,59,6.07,7.86L275.8,32.66c4.46-3.67-1.27-10.66-6.07-7.87L210.32,59.4l6.06,7.87a90.23,90.23,0,0,0,25.17-30.72c2.14-4.23-2.37-9.67-6.85-6.85a319.87,319.87,0,0,0-44.77,34.06l7.86,6.06,16.78-22.36c3.64-4.84-3.82-9.46-7.86-6.07q-31.31,26.3-59.94,55.49c-3.82,3.91,1.33,11.32,6.07,7.86q50.43-36.84,97.55-77.89c4.53-4-1.24-10.18-6.07-7.86L164.49,57.38l5,8.64a605.55,605.55,0,0,0,65.4-44.26c4.65-3.61-1.27-10.42-6.07-7.87L142.18,60l5,8.65a785.15,785.15,0,0,0,86.69-54.43c5.14-3.71.71-11.81-5-8.65l-115,63.05c-5.69,3.13-.68,11.46,5.06,8.65a509.34,509.34,0,0,0,89.8-56.45c4.64-3.64-1.27-10.4-6.07-7.87L116.18,58.63l5,8.65,73.56-47.23c5.47-3.52.72-11.4-5.06-8.65a683.33,683.33,0,0,0-76.61,42.81c-4.49,2.9-1.65,11.42,3.86,9.15A159.38,159.38,0,0,0,171.73,26.2c4-4.16-1-10.5-6.07-7.87A803.85,803.85,0,0,1,65.38,62.46l3.86,9.15a385.17,385.17,0,0,0,78.54-47.8c3.91-3.06-.33-10-4.87-8.37Q82.15,38,22.61,63.67c-5.26,2.26-1.5,10.71,3.85,9.15A770.61,770.61,0,0,0,177.39,10.54l-5-8.65A630.3,630.3,0,0,1,78.39,60.22l5,8.65a519.08,519.08,0,0,0,79.05-51.62c3.82-3-.34-10.28-4.87-8.37L27.42,63.69l3.86,9.15,72.25-46c5.43-3.45.64-11.71-5-8.64l-42.63,23c-5.76,3.11-.7,11.3,5,8.65a112.81,112.81,0,0,0,43.3-35.3c3.12-4.15-2.82-9.26-6.85-6.85L31.68,47.05c-5.64,3.37-.71,11.27,5,8.64l80.12-36.53C122,16.81,118.35,8.21,113,10L3.58,46.73l3.85,9.15,84-46.61c5.65-3.14.65-11.62-5.05-8.65l-74.82,39,5,8.64,50.73-27c5.69-3,.64-11.67-5.05-8.64Z"/></g></g></svg>